<?xml version="1.0" encoding="UTF-8"?>
<svg id="Layer_1" data-name="Layer 1" xmlns="http://www.w3.org/2000/svg" viewBox="0 0 476.78 654.36">
  <defs>
    <style>
      .cls-1 {
        fill: #b9c8e6;
      }

      .cls-1, .cls-2, .cls-3, .cls-4, .cls-5, .cls-6, .cls-7, .cls-8, .cls-9, .cls-10, .cls-11, .cls-12, .cls-13, .cls-14, .cls-15, .cls-16 {
        stroke-width: 0px;
      }

      .cls-2 {
        fill: #bf616c;
      }

      .cls-17 {
        fill: none;
      }

      .cls-17, .cls-18 {
        stroke: #231f20;
        stroke-miterlimit: 10;
        stroke-width: 5px;
      }

      .cls-3 {
        fill: #df8293;
      }

      .cls-4 {
        fill: #73a1c6;
      }

      .cls-5 {
        fill: #ca8f77;
      }

      .cls-6 {
        fill: #83b9e4;
      }

      .cls-7 {
        fill: #e8a2ae;
      }

      .cls-8 {
        fill: #ccad81;
      }

      .cls-9 {
        fill: #fff;
      }

      .cls-10 {
        fill: #a84460;
      }

      .cls-11 {
        fill: #ffffff;
      }

      .cls-18 {
        fill: #231f20;
      }

      .cls-12 {
        fill: #b2697a;
      }

      .cls-13 {
        fill: #a6a8ab;
      }

      .cls-14 {
        fill: #b1687a;
      }

      .cls-15 {
        fill: #e08394;
      }

      .cls-16 {
        fill: #955556;
      }
    </style>
  </defs>
  <g>
    <polygon class="cls-15" points="181.86 347.67 162.31 374.81 149.76 402.24 145.09 434.09 152.68 459.9 170.48 477.83 204.19 491.07 249.86 476.66 335.08 465.87 339.17 427.49 320.34 418.15 321.04 371.89 312.93 346.94 181.86 347.67"/>
    <polygon class="cls-12" points="325.89 388.96 337.71 392.17 342.38 407.93 339.73 419.46 332.4 423.69 325.56 420.78 325.89 388.96"/>
    <polyline class="cls-8" points="285.72 359.5 284.19 369.88 262.31 385.64 262.74 390.13 298.48 394.62 325.01 388.6 325.01 383.89 308.59 374.59 306.78 359.72"/>
    <polygon class="cls-1" points="264.6 390.13 285.32 393.78 280.8 437.7 282.26 469.63 286.49 491.07 267.92 486.54 259.55 468.76 259.55 440.6 263.36 393.2 264.6 390.13"/>
    <polygon class="cls-4" points="310.35 393.2 325.56 388.22 331.23 418.59 330.41 483.08 324.72 487.75 307.94 490.67 313.01 460.69 312.17 412.75 310.35 393.2"/>
    <polygon class="cls-6" points="284.52 393.2 310.35 393.2 314.07 453.39 308.59 491.07 287.14 491.07 280.8 449.89 284.52 393.2"/>
    <g>
      <path class="cls-13" d="m310.99,488.09c2.05-5.43,4.62-17.01,4.62-40.95,0-37.28-3.6-55.37-3.75-56.12l-4.41,1.12c.04.18,3.64,18.38,3.64,55,0,30.72-4.3,39.62-5.33,41.31-4.73.24-9.09.24-11.75.24h-.05c-1.91,0-3.7-.05-5.39-.13-1.34-2.5-5.09-12.03-5.09-40.37,0-36.17,3.6-54.13,3.64-54.31l-4.41-1.11c-.15.74-3.75,18.6-3.75,55.42,0,22.94,2.42,34.38,4.44,39.94-7-.85-11.7-2.7-14.7-5.71-5.9-5.91-6.3-17-6.26-34.55h-4.52c-.04,18.71.44,30.59,7.58,37.75,4.24,4.25,10.54,6.55,20.42,7.31.03.04.06.07.09.09l.06-.07c2.44.18,5.09.27,7.99.27h.09c12.89,0,36.74-.03,38.58-11.04l-4.46-.74c-.68,4.08-8.81,5.87-17.26,6.65Z"/>
      <path class="cls-13" d="m265.64,391.6s-.15.23-.5.45l-2.41-3.83c-.7.44-2.55,1.6-3.75,15.29l4.51.4c.9-10.25,2.1-12.23,2.15-12.31Z"/>
      <path class="cls-13" d="m326.91,386.43l-3.3,3.09s-.04-.03-.1-.11c.19.26,4.71,6.89,4.71,44.68v2.12h4.52v-2.12c0-39.42-4.86-46.62-5.84-47.66Z"/>
    </g>
    <path class="cls-5" d="m295.68,396.48c-20.29,0-32-4.04-32.49-4.21l-.29-.13c-2.69-1.4-3.31-3.21-3.35-4.48-.14-4.29,5.94-7.96,12.97-12.2,3.75-2.27,8.01-4.83,8.99-6.38.79-1.25,1.03-4.11,1.26-6.88.07-.82.14-1.66.22-2.5l4.5.46c-.08.82-.15,1.63-.22,2.43-.3,3.61-.56,6.74-1.94,8.92-1.55,2.46-5.69,4.95-10.47,7.84-3.45,2.08-10.63,6.41-10.78,8.18h0s.2.22.76.54c1.4.46,12.59,3.91,30.84,3.91s25.79-3.74,25.85-3.78c1.21-.69,2.29-1.83,2.31-2.24h0s-.27-.57-2.04-1.3c-1.25-.52-2.48-.97-3.68-1.41-6.16-2.27-11.97-4.42-13.91-13.63-.67-3.21-.4-6.57-.13-9.82l.02-.27,4.51.37-.02.27c-.24,2.93-.49,5.96.05,8.52,1.42,6.77,5.25,8.18,11.05,10.32,1.23.46,2.51.93,3.84,1.48,3.07,1.27,4.69,3.03,4.82,5.21.22,3.53-3.77,5.98-4.58,6.43-.26.15-7.58,4.38-28.11,4.38Z"/>
    <g>
      <path class="cls-16" d="m435.03,161.57v3.85c0,.33-.14,33.06-9.24,65.37-11.95,42.39-33.94,65.26-63.66,66.34-.09.64-.19,1.28-.33,1.92-.55,2.62-1.1,4.3-1.46,5.41-.18.57-.41,1.27-.4,1.42.02.15.25.54.54,1.01.62.74.95,1.31,1.12,1.67,3.82,6.15,4.43,29.38-5.81,38.07-6.83,5.8-16.78,12.29-34.76,14.42,1.52,6.88,2.5,15.43,1.07,20.48l-4.35-1.23c1.02-3.6.51-11.07-1.26-18.83-2.6.19-5.35.29-8.28.29-2.54,0-6.06.07-10.12.16-6.24.12-13.99.27-22.64.27-28.49,0-66.68-1.7-92.46-11.7-3.66,4.13-16.91,19.75-26.09,39.76-14.15,30.82-12.47,56.93,4.96,77.6,7.36,8.72,21.05,15.76,38.78,20.03-1.57-4.85-2.45-10.25-2.45-15.95,0-13.32,4.81-25.06,12.03-31.82-7.92-.93-21.06-3.85-26.6-13.13l3.89-2.32c6.16,10.34,25.45,11.25,28.59,11.33,2.09-1.02,4.3-1.66,6.58-1.9-1.29-.68-2.58-1.38-3.86-2.09-21.15-11.78-29.66-20.5-26.81-27.47l4.18,1.72c-2.64,6.43,21.89,21.7,48.09,33.49-.08-.21-.17-.41-.24-.62-1.78-5.28-1.82-11.61-.11-17.86,2.04-7.49,6.27-13.51,11.23-16.87-15.53-2.8-42.17-9.16-40.85-19.58l4.49.57c-.01.08-.01.16-.01.24,0,5.34,22.77,12.29,44.48,15.52,1.33-.07,2.61.4,3.91.76,4.65,1.26,8.23,5.03,10.11,10.63,1.78,5.28,1.82,11.63.11,17.86-3.18,11.67-11.69,19.81-20.01,19.81-1.09,0-2.18-.15-3.25-.43-2.09-.58-3.95-1.67-5.55-3.19-.87-.37-3.23-1.41-6.55-2.92,5.41,6.96,8.81,17.05,8.81,28.28,0,.79-.02,1.58-.06,2.36,4.63.15,9.33-.81,12.75-1.76l1.22,4.35c-3.51.97-8.26,1.97-13.11,1.97-.41,0-.83-.03-1.24-.05-2.25,17.65-13.01,31.07-25.9,31.07-9.13,0-17.18-6.72-21.91-16.91-20.4-4.43-35.68-12.1-44.21-22.2-18.43-21.84-20.37-50.37-5.59-82.51,8.83-19.19,20.93-34.09,25.76-39.63-7.6-3.46-13.85-7.76-18.07-13.12-10.3-13.13-14.54-14.09-20.94-15.55-8.55-1.95-20.25-4.61-50.68-35.04-53.74-53.74-47.06-103.17-46.75-105.24l.43-2.8,2.64,1.03c.46.18,46.16,17.94,59.88,17.94,5.58,0,13.5-6.05,21.89-12.46,11.43-8.73,24.38-18.61,37.65-18.61s19.45,4.09,24.3,7.38c3.46,2.35,6.2,4.22,11.03,4.29,5.71-1.4,72.67-17.12,107.54,6.96,2.07.78,7.33,2.25,10.31.89,7.75-3.52,22.41-7.7,48.33-7.7,41.29,0,65.28-13.01,65.51-13.14l3.36-1.87Zm-13.62,68.06c7.06-25,8.64-50.3,8.99-60.04-15.3,9.92-74.79,50.69-71.47,82.88,1.28,12.39,12.13,22.37,32.23,29.67,13.13-10.18,23.25-27.73,30.25-52.52Zm-6.58-54.95c-11.44,3.28-27.85,6.42-48.67,6.42-25.11,0-39.13,3.97-46.47,7.29-1.56.71-3.31.96-5.06.95,24.72,24.38,35.3,50.7,39.16,67.48,1.4,6.07,1.92,10.9,1.92,13.94,0,4.61,1.72,7.85,3.37,10.97.34.64.68,1.27.98,1.89,1.36,2.74,2.1,5.79,2.25,8.97,8.92-.37,17.04-2.82,24.31-7.32-18.09-7.14-28.69-16.73-31.56-28.59-.29-1.22-.51-2.48-.64-3.75-2.94-28.56,36.79-61.41,60.4-78.26Zm-61.96,168.49c8.62-7.31,7.52-28.43,4.85-32.3-.29-.44-.55-.83-.79-1.19-2.04-2.26-10.66-8.85-41.99-8.85-40.27,0-48.74,29.38-48.74,35.17,0,3.57,1.44,21.41,29.67,21.42.72-.01,1.45-.02,2.14-.03,4.08-.09,7.62-.16,10.21-.16,24.89,0,36.94-7.51,44.65-14.06Zm4.51-45.08c.93-4.39.44-8.81-1.36-12.45-.29-.59-.61-1.18-.93-1.78-1.74-3.28-3.9-7.36-3.9-13.1,0-11-7.26-46.63-40.46-78.93-31.11-30.27-109.15-11.15-109.93-10.96l-.27.07h-.28c-6.39,0-10.01-2.47-13.84-5.07-4.56-3.1-9.73-6.6-21.76-6.6s-24.04,9.4-34.9,17.69c-9.41,7.18-17.53,13.39-24.64,13.39s-20.64-3.92-33.4-8.14c35.16,20.29,92.68,58.46,90.65,90.05-.83,12.73-11.04,23.03-30.38,30.66,3.44,1.42,6.16,2.06,8.61,2.61,6.82,1.55,12.2,2.77,23.49,17.16,17.21,21.92,72.72,24.96,110.99,24.97-12.53-6.54-13.39-18.56-13.39-21.67,0-10.6,12.62-39.69,53.27-39.69,23.38,0,35.14,3.63,41.03,7,.02-.08.05-.16.08-.25.34-1.09.83-2.56,1.33-4.96Zm-84.33,131.08c1.47-5.38,1.46-10.79-.03-15.22-1.38-4.13-3.87-6.86-7.01-7.71-.68-.19-1.38-.28-2.09-.28-6.22,0-13.02,6.96-15.62,16.48-1.46,5.38-1.45,10.79.05,15.23,1.38,4.12,3.87,6.85,7.01,7.71,6.71,1.82,14.81-5.6,17.7-16.21Zm-26.7,42.75c0-18.42-9.78-33.42-21.82-33.42s-21.82,15-21.82,33.42,9.79,33.42,21.82,33.42,21.82-15,21.82-33.42Zm-88.5-189.95c2.42-37.68-93.16-88.96-111.45-98.41-.47,11.7,1.33,53.77,45.71,98.15,16.13,16.13,26.7,24.17,34.3,28.46,20.1-7.1,30.69-16.58,31.44-28.2Z"/>
      <path class="cls-2" d="m430.41,169.58c-.35,9.74-1.93,35.04-8.99,60.04-7,24.79-17.12,42.34-30.25,52.52-20.1-7.31-30.95-17.28-32.23-29.67-3.31-32.2,56.17-72.97,71.47-82.88Z"/>
      <path class="cls-3" d="m366.16,181.1c20.82,0,37.23-3.14,48.67-6.42-23.61,16.85-63.34,49.7-60.4,78.26.14,1.28.35,2.53.64,3.75l-1.28.14c-3.87-16.78-14.44-43.1-39.16-67.48,1.74.01,3.49-.24,5.06-.95,7.34-3.32,21.36-7.29,46.47-7.29Z"/>
      <path class="cls-3" d="m386.64,285.28c-7.27,4.5-15.39,6.94-24.31,7.32-.15-3.18-.89-6.23-2.25-8.97-.31-.62-.64-1.24-.98-1.89-1.65-3.12-3.37-6.36-3.37-10.97,0-3.04-.52-7.87-1.92-13.94l1.28-.14c2.87,11.86,13.47,21.45,31.56,28.59Z"/>
      <path class="cls-16" d="m348.79,427.8c9.77,3.45,17.03,16.12,17.03,31.17,0,17.7-10.04,32.09-22.39,32.09s-22.39-14.4-22.39-32.09c0-14.57,6.81-26.89,16.09-30.81l-5.78-2.22.54-1.42-.62-4.15c7.87-1.19,8.44-6.14,8.44-14.18,0-9.35-4.23-14.35-12.56-14.84l.27-4.51c10.69.62,16.82,7.68,16.82,19.35,0,5.59,0,13.56-7.15,17.11l11.72,4.49h-.01Zm12.51,31.17c0-13.22-6.06-24.29-14.11-26.96h-.01s-.21-.08-.21-.08c-1.14-.35-2.32-.54-3.53-.54-9.85,0-17.87,12.37-17.87,27.58s8.02,27.57,17.87,27.57,17.87-12.37,17.87-27.57Z"/>
      <path class="cls-14" d="m357.73,310.87c2.67,3.87,3.77,24.99-4.85,32.3-7.71,6.55-19.76,14.06-44.65,14.06-2.59,0-6.13.07-10.21.16-.69.01-1.41.02-2.14.03-28.24-.01-29.67-17.85-29.67-21.42,0-5.79,8.47-35.17,48.74-35.17,31.33,0,39.95,6.59,41.99,8.85.24.36.5.75.79,1.19Z"/>
      <path class="cls-14" d="m347.19,432.01c8.05,2.67,14.11,13.74,14.11,26.96,0,15.2-8.02,27.57-17.87,27.57s-17.87-12.37-17.87-27.57,8.02-27.58,17.87-27.58c1.21,0,2.39.19,3.53.54l.21.09h.01Z"/>
      <path class="cls-3" d="m356.03,285.64c1.8,3.64,2.28,8.06,1.36,12.45-.51,2.41-1,3.88-1.33,4.96-.03.09-.06.17-.08.25-5.89-3.37-17.65-7-41.03-7-40.64,0-53.27,29.1-53.27,39.69,0,3.11.86,15.13,13.39,21.67-38.27-.01-93.77-3.05-110.99-24.97-11.29-14.39-16.67-15.61-23.49-17.16-2.44-.55-5.17-1.19-8.61-2.61,19.34-7.63,29.55-17.92,30.38-30.66,2.02-31.6-55.49-69.77-90.65-90.05,12.76,4.22,26.5,8.14,33.4,8.14s15.23-6.21,24.64-13.39c10.86-8.29,23.16-17.69,34.9-17.69s17.2,3.51,21.76,6.6c3.83,2.6,7.45,5.07,13.84,5.07h.28l.27-.07c.78-.19,78.82-19.32,109.93,10.96,33.2,32.3,40.46,67.92,40.46,78.93,0,5.73,2.16,9.82,3.9,13.1.32.6.63,1.19.93,1.78Z"/>
      <path class="cls-12" d="m273.02,413.95c1.49,4.43,1.5,9.84.03,15.22-2.88,10.61-10.99,18.03-17.7,16.21-3.14-.86-5.63-3.6-7.01-7.71-1.49-4.44-1.5-9.85-.05-15.23,2.6-9.52,9.4-16.48,15.62-16.48.71,0,1.41.09,2.09.28,3.14.85,5.63,3.58,7.01,7.71Z"/>
      <ellipse class="cls-14" cx="224.54" cy="471.92" rx="21.82" ry="33.42"/>
      <path class="cls-2" d="m46.4,183.56c18.29,9.45,113.87,60.73,111.45,98.41-.75,11.63-11.34,21.1-31.44,28.2-7.6-4.3-18.17-12.34-34.3-28.46-44.38-44.38-46.19-86.45-45.71-98.15Z"/>
    </g>
    <g>
      <ellipse class="cls-11" cx="333.06" cy="400.73" rx="1.37" ry="4.43" transform="translate(-88.91 95.03) rotate(-14.35)"/>
      <path class="cls-11" d="m334.05,407.3c-.5,0-1.01-.14-1.47-.41-1.79-1.05-2.72-4.01-3.04-5.24-1.04-4.05-.36-6.81,1.82-7.4.72-.19,1.49-.08,2.17.31,1.79,1.05,2.72,4.01,3.04,5.24,1.04,4.04.36,6.81-1.82,7.4-.23.06-.47.09-.7.09Z"/>
    </g>
    <path class="cls-7" d="m206.56,178.76s-68.43,115.06-7.8,143.11c60.62,28.05,67.03-4.87,82.04-13.97,15.01-9.1,26.6-8.85,40.24-9.24s32.61-26.01,32.61-26.01l-5.25-28.08-20.51-38.24-17.33-19.26-22.99-10.14-32.13-5.03-46.25,5.03-2.62,1.84Z"/>
    <g>
      <circle class="cls-11" cx="233.11" cy="291.76" r="18.41"/>
      <path class="cls-16" d="m233.11,312.43c-11.4,0-20.67-9.27-20.67-20.67s9.27-20.67,20.67-20.67,20.67,9.27,20.67,20.67-9.27,20.67-20.67,20.67Zm0-36.82c-8.9,0-16.15,7.24-16.15,16.15s7.24,16.15,16.15,16.15,16.15-7.24,16.15-16.15-7.24-16.15-16.15-16.15Z"/>
    </g>
    <g>
      <path class="cls-11" d="m360.26,296.52c0,3.95-2.64,10.03-5.96,8.43-12.38-5.99-19.94-5.78-27.49-6.65-.99-.11-2.92-3.56-2.92-6.54,0-10.17,7.13-18.41,17.3-18.41,4.09,0,7.86,1.33,10.92,3.58,2.55,1.88,4.44,4.3,5.74,7.23,1.02,2.29,2.41,9.69,2.41,12.36Z"/>
      <path class="cls-16" d="m355.39,307.47c-.7,0-1.4-.16-2.08-.49-10.05-4.86-16.68-5.48-23.1-6.07-1.24-.11-2.45-.23-3.67-.37-2.85-.33-4.92-5.48-4.92-8.78,0-11.79,8.41-20.67,19.56-20.67,4.45,0,8.69,1.39,12.26,4.02,2.81,2.07,4.98,4.8,6.47,8.13,1.19,2.66,2.61,10.42,2.61,13.28,0,3.6-1.71,8.39-4.57,10.19-.82.51-1.69.77-2.56.77Zm-27.79-11.37c1.01.11,2.02.2,3.04.3,6.5.6,13.86,1.29,24.65,6.5.07.04.11.04.11.04.71-.06,2.61-3.24,2.61-6.43,0-2.48-1.37-9.53-2.22-11.44-1.18-2.64-2.82-4.71-5.02-6.33-2.79-2.06-6.1-3.14-9.57-3.14-8.57,0-15.04,6.94-15.04,16.15,0,1.7.91,3.64,1.45,4.35Z"/>
    </g>
    <circle class="cls-9" cx="344.1" cy="290.41" r="5.81"/>
    <ellipse class="cls-11" cx="298.48" cy="331.56" rx="6.32" ry="12.18" transform="translate(-39.45 40.31) rotate(-7.25)"/>
    <g>
      <ellipse class="cls-11" cx="336.07" cy="326.14" rx="11.38" ry="5.91" transform="translate(-4.19 647.92) rotate(-87.54)"/>
      <path class="cls-16" d="m336.42,317.03c-1.45,0-3.77,3.53-4,8.96-.11,2.64.31,5.22,1.18,7.06.61,1.31,1.43,2.18,2.08,2.21.66-.03,1.54-.77,2.26-2.02,1.01-1.77,1.66-4.29,1.78-6.94h0c.24-5.48-1.8-9.21-3.25-9.27-.01,0-.03,0-.04,0Z"/>
    </g>
    <g>
      <ellipse class="cls-11" cx="216.57" cy="456.04" rx="11.38" ry="2.95" transform="translate(-259.21 624.89) rotate(-84.14)"/>
      <path class="cls-11" d="m215.51,469.63c-.11,0-.22,0-.34-.02-4.82-.49-4.12-10.92-3.8-14.1s1.78-13.56,6.58-13.04c1.96.2,3.22,2.03,3.74,5.44.36,2.38.38,5.46.05,8.67h0c-.33,3.21-.97,6.22-1.81,8.48-1.13,3.04-2.62,4.58-4.43,4.58Zm1.78-20.63c-.54,1.58-1.1,3.94-1.41,6.97-.31,3.03-.24,5.46-.03,7.11.54-1.58,1.1-3.94,1.41-6.97h0c.31-3.03.24-5.46.03-7.12Z"/>
    </g>
    <g>
      <ellipse class="cls-11" cx="232.35" cy="455.17" rx="2.95" ry="11.38" transform="translate(-45.29 26.12) rotate(-5.86)"/>
      <path class="cls-11" d="m233.41,468.76c-4.55,0-5.94-9.95-6.26-13.06h0c-.33-3.18-1.02-13.61,3.8-14.11,1.96-.21,3.57,1.33,4.77,4.56.84,2.26,1.48,5.27,1.81,8.48.33,3.21.31,6.29-.05,8.67-.52,3.41-1.78,5.24-3.74,5.44-.11.01-.22.02-.33.02Zm-1.76-13.52c.31,3.03.87,5.39,1.41,6.97.21-1.66.28-4.08-.03-7.11-.31-3.03-.87-5.39-1.41-6.97-.21,1.66-.28,4.08.03,7.12h0Z"/>
    </g>
    <g>
      <ellipse class="cls-11" cx="258.83" cy="416.93" rx="5.57" ry="1.68" transform="translate(-214.65 545.93) rotate(-73.41)"/>
      <path class="cls-11" d="m257.42,424.56c-.19,0-.38-.02-.58-.06-.79-.16-1.46-.65-1.9-1.37-1.22-2.02-.36-5.68.07-7.16.64-2.21,2.49-7.28,5.83-6.6.79.16,1.46.65,1.9,1.37,1.22,2.02.36,5.68-.07,7.16-.47,1.62-2.18,6.66-5.24,6.66Z"/>
    </g>
    <g>
      <ellipse class="cls-11" cx="267.92" cy="417.54" rx="5.51" ry="1.7" transform="translate(-160.24 668.15) rotate(-87.66)"/>
      <path class="cls-11" d="m267.73,425.31s-.06,0-.09,0c-.78-.02-1.52-.37-2.08-.98-1.62-1.74-1.66-5.42-1.6-6.93h0c.07-1.8.58-7.63,4.15-7.63.03,0,.06,0,.09,0,.78.02,1.52.37,2.09.98,1.62,1.74,1.66,5.42,1.6,6.93-.07,1.8-.58,7.63-4.15,7.63Z"/>
    </g>
    <g>
      <ellipse class="cls-11" cx="336.34" cy="448.24" rx="10.23" ry="2.66" transform="translate(-143.92 737.03) rotate(-84.14)"/>
      <path class="cls-11" d="m335.39,460.69c-.11,0-.22,0-.33-.02-4.42-.45-4-9.2-3.62-12.93.3-2.9.88-5.63,1.64-7.68,1.12-3.01,2.63-4.46,4.53-4.25,1.88.19,3.08,1.9,3.57,5.08.33,2.16.35,4.95.05,7.85-.37,3.64-1.68,11.95-5.84,11.95Zm1.47-17.6c-.36,1.32-.71,3.04-.92,5.11-.21,2.07-.22,3.82-.14,5.19.36-1.32.71-3.04.92-5.11h0c.21-2.07.22-3.82.14-5.19Z"/>
    </g>
    <g>
      <ellipse class="cls-11" cx="350.52" cy="447.45" rx="2.66" ry="10.23" transform="translate(-43.88 38.15) rotate(-5.86)"/>
      <path class="cls-11" d="m351.47,459.9c-1.73,0-3.14-1.43-4.19-4.27-.76-2.05-1.35-4.77-1.64-7.68h0c-.38-3.74-.8-12.48,3.61-12.93,1.88-.19,3.4,1.23,4.53,4.25.76,2.05,1.35,4.77,1.64,7.68.38,3.74.8,12.48-3.61,12.93-.11.01-.22.02-.33.02Zm-1.34-12.41c.21,2.07.56,3.79.92,5.11.09-1.37.08-3.12-.14-5.19-.21-2.07-.56-3.79-.92-5.11-.09,1.37-.08,3.12.14,5.19h0Z"/>
    </g>
    <g>
      <circle class="cls-9" cx="233.11" cy="291.76" r="9.17"/>
      <path class="cls-11" d="m233.11,303.18c-6.3,0-11.43-5.13-11.43-11.43s5.13-11.43,11.43-11.43,11.43,5.13,11.43,11.43-5.13,11.43-11.43,11.43Zm0-18.33c-3.81,0-6.9,3.1-6.9,6.9s3.1,6.9,6.9,6.9,6.9-3.1,6.9-6.9-3.1-6.9-6.9-6.9Z"/>
    </g>
    <g>
      <path class="cls-13" d="m294.13,493.22h-.09c-2.9,0-5.55-.09-7.99-.27l-.06.07s-.05-.05-.09-.09c-9.87-.75-16.17-3.05-20.42-7.31-6.63-6.65-7.52-17.38-7.58-33.88l4.52-.05c.05,15.36.8,25.27,6.26,30.74,3.01,3.01,7.7,4.86,14.7,5.71-2.02-5.56-4.44-17.01-4.44-39.94h4.52c0,28.33,3.75,37.87,5.09,40.37,1.69.08,3.48.13,5.39.13h.05c2.66,0,7.02,0,11.75-.24,1.03-1.69,5.33-10.59,5.33-41.31h4.52c0,23.94-2.57,35.51-4.62,40.95l-16.86,5.14Z"/>
      <path class="cls-13" d="m324.61,392.02c1.33,4.22,3.43,14.63,3.6,38.72,0,.31,0,.63,0,.95,0,.79,0,1.59,0,2.41,0,0,4.52-2.79,4.51-4.12-.19-21.22-1.87-32.22-3.4-37.88-1.05-3.89-1.09-3.54-1.47-3.95"/>
    </g>
    <path class="cls-5" d="m308.65,368.65c1.42,6.77,5.25,8.18,11.05,10.32,1.23.46,2.51.93,3.84,1.48,3.07,1.27,4.69,3.03,4.82,5.21.22,3.53-3.77,5.98-4.58,6.43-.26.15-7.58,4.38-28.11,4.38s-32-4.04-32.49-4.21l-.29-.13c-2.69-1.4-3.31-3.21-3.35-4.48-.14-4.29,5.94-7.96,12.97-12.2,3.75-2.27,8.01-4.83,8.99-6.38.79-1.25,1.03-4.11,1.26-6.88l4.51.38c-.3,3.61-.56,6.74-1.94,8.92-1.55,2.46-5.69,4.95-10.47,7.84-3.45,2.08-10.63,6.41-10.78,8.18h0s.2.22.76.54c1.4.46,12.59,3.91,30.84,3.91s25.79-3.74,25.85-3.78c1.21-.69,2.29-1.83,2.31-2.24h0s-.27-.57-2.04-1.3c-1.25-.52-2.48-.97-3.68-1.41-6.16-2.27-11.97-4.42-13.91-13.63l4.43-.93Z"/>
    <path class="cls-7" d="m160.15,167.36s25.18,9.35,12.04,31.62c-13.14,22.27-32.54,44.27-58.32,23.67-25.78-20.6-53.71-33.96-53.71-33.96l15.28,1.69,8.76,3.06,7.44,1.53,5.69,2.19,4.95,1.09,5.34-.65,27.63-17.26,24.91-12.99Z"/>
    <path class="cls-10" d="m44.4,183.56s104.87,102.28,101.12,117.27l3.68.44,8.7-10.86,2.26-14.8-10.83-20.2-17.85-18.6-27.3-21.08-44.01-28.33-10.81-5.16h-4.61l-.34,1.33Z"/>
    <path class="cls-10" d="m431.66,170.05s-65.99,90.24-61.49,101.03l-3.6-1.13-7.73-7.14-3.37-10.82,5.82-16.34,9.3-17.52,18.54-19.56,31.17-23.88,7.5-5.08,3.45-.52.4.95Z"/>
    <path class="cls-7" d="m337.71,180.3s-10.89,6.62.93,18.6c11.82,11.97,26.56,18.31,42.66,4.11,16.05-14.15,39.98-30.5,39.98-30.5l-22.94,5.65-8.43.04-5.4.73-3.21.88-4.82-.44-3.47.43-15.16-.22-20.14.72Z"/>
    <g>
      <path class="cls-17" d="m200.25,179.03s79.67-19.99,112.07,11.53c32.39,31.52,41.15,67.42,41.15,80.55,0,6.17,2.74,10.15,4.58,13.87,2.08,4.19,2.56,9.17,1.54,13.93-1.75,8.24-3.21,6.35,0,11.02s4.38,27.14-5.25,35.31-22.47,14.59-46.11,14.59-121.41,5.84-145.92-25.39-18.24,2.77-71.79-50.78-46.11-103.31-46.11-103.31c0,0,46.4,18.09,60.7,18.09s37.06-31.08,59.54-31.08,22.47,11.67,35.61,11.67Z"/>
      <path class="cls-17" d="m306.44,185.73s7.63,3.08,12.33.95c7.27-3.3,21.6-7.5,47.4-7.5,42.46,0,66.61-13.42,66.61-13.42,0,0-.14,129.5-72.85,129.5"/>
      <path class="cls-17" d="m359.6,309.92s-3.94-11.02-44.65-11.02-51,29.33-51,37.43,5.04,23.69,31.96,23.69"/>
      <circle class="cls-18" cx="233.11" cy="292.1" r="18.41"/>
      <path class="cls-18" d="m360.26,296.86c0,3.95-2.64,10.03-5.96,8.43-12.38-5.99-19.94-5.78-27.49-6.65-.99-.11-2.92-3.56-2.92-6.54,0-10.17,7.13-18.41,17.3-18.41,4.09,0,7.86,1.33,10.92,3.58,2.55,1.88,4.44,4.3,5.74,7.23,1.02,2.29,2.41,9.69,2.41,12.36Z"/>
      <ellipse class="cls-18" cx="298.48" cy="331.9" rx="5.91" ry="11.38" transform="translate(-39.49 40.31) rotate(-7.25)"/>
      <path class="cls-17" d="m44.4,180.35s191.59,94.88,81.79,132.66"/>
      <ellipse class="cls-18" cx="336.07" cy="326.49" rx="11.38" ry="5.91" transform="translate(-4.53 648.25) rotate(-87.54)"/>
      <path class="cls-17" d="m432.78,165.75s-139.1,84.57-41.49,119.19"/>
      <path class="cls-17" d="m319.94,381.24c1.22-4.33.51-12.76-1.47-20.98"/>
      <path class="cls-17" d="m247.16,476.57c5.26.87,11.4.03,17.02-1.54"/>
      <path class="cls-17" d="m182.35,348.17s-65.79,69.81-22.19,121.47c8.66,10.26,24.64,17.6,43.93,21.67"/>
      <path class="cls-17" d="m285.25,360.26c-.42,4.17-.47,8.23-1.82,10.37-3.5,5.55-29.04,14.88-19.48,19.85,0,0,11.6,4.09,31.74,4.09s26.99-4.09,26.99-4.09c0,0,7.73-4.38,0-7.59s-14.22-3.83-16.24-13.42c-.62-2.97-.33-6.28-.07-9.44"/>
      <path class="cls-17" d="m330.49,436.55c0-.69,0-1.4,0-2.12,0-40.53-5.23-46.12-5.23-46.12"/>
      <path class="cls-17" d="m260.18,448.22c-.07,31.76,1.45,43.08,33.79,43.08,11.21,0,34.99.02,36.52-9.15"/>
      <path class="cls-17" d="m263.95,390.47s-1.6,1.01-2.7,13.58"/>
      <path class="cls-17" d="m331.62,422.95c10.16-1.53,10.36-9.23,10.36-16.42,0-7.89-3.05-16.41-14.69-17.1"/>
      <ellipse class="cls-17" cx="224.55" cy="472.26" rx="24.08" ry="35.68"/>
      <ellipse class="cls-17" cx="343.43" cy="459.31" rx="20.14" ry="29.84"/>
      <ellipse class="cls-17" cx="260.69" cy="426.15" rx="22.55" ry="15.09" transform="translate(-218.99 565.68) rotate(-74.76)"/>
      <ellipse class="cls-18" cx="216.57" cy="456.39" rx="11.38" ry="2.95" transform="translate(-259.55 625.2) rotate(-84.14)"/>
      <ellipse class="cls-18" cx="232.35" cy="455.51" rx="2.95" ry="11.38" transform="translate(-45.32 26.12) rotate(-5.86)"/>
      <ellipse class="cls-18" cx="258.83" cy="417.27" rx="5.57" ry="1.68" transform="translate(-214.97 546.18) rotate(-73.41)"/>
      <ellipse class="cls-18" cx="267.92" cy="417.88" rx="5.51" ry="1.7" transform="translate(-160.58 668.48) rotate(-87.66)"/>
      <ellipse class="cls-18" cx="333.06" cy="401.07" rx="1.37" ry="4.43" transform="translate(-89 95.04) rotate(-14.35)"/>
      <ellipse class="cls-18" cx="336.34" cy="448.58" rx="10.23" ry="2.66" transform="translate(-144.26 737.34) rotate(-84.14)"/>
      <ellipse class="cls-18" cx="350.53" cy="447.8" rx="2.66" ry="10.23" transform="translate(-43.92 38.16) rotate(-5.86)"/>
      <path class="cls-17" d="m216.57,438.59s-23.55.03-30.99-12.45"/>
      <path class="cls-17" d="m249.87,444.97s-61.22-25.89-55.75-39.24"/>
      <path class="cls-17" d="m262.95,403.7s-47.8-7.1-46.38-18.27"/>
      <path class="cls-17" d="m284.19,395.77s-2.96,17.7-2.96,51.15,5.26,44.15,5.26,44.15"/>
      <path class="cls-17" d="m310.23,395.26s3.13,18.21,3.13,51.66c0,33.45-6.26,43.76-6.26,43.76"/>
      <line class="cls-17" x1="347.99" y1="430.25" x2="332.16" y2="424.18"/>
      <circle class="cls-18" cx="233.11" cy="292.1" r="9.17"/>
      <circle class="cls-18" cx="345.24" cy="289.62" r="9.17"/>
    </g>
    <path class="cls-7" d="m166.84,395.85s5.47,33.17,13.9,40.49c13.73,11.92,10.35,27.69-2.3,20.38-22.99-13.29-11.6-60.87-11.6-60.87Z"/>
  </g>
</svg>